<?xml version="1.0" encoding="UTF-8"?>
<svg id="_レイヤー_2" data-name="レイヤー 2" xmlns="http://www.w3.org/2000/svg" viewBox="0 0 127.78 31.32">
  <defs>
    <style>
      .cls-1 {
        fill: #231815;
      }
    </style>
  </defs>
  <g id="_レイヤー_4" data-name="レイヤー 4">
    <g>
      <path class="cls-1" d="M3.39,12.5c-.04.54-.08,1.08-.1,1.6-.02.52-.05,1.05-.08,1.58.16,0,.45,0,.88-.01.43,0,.9-.03,1.4-.05-.01.04-.02.12-.02.24v.45c0,.1,0,.17.02.21-.19-.01-.38-.02-.58-.03-.2,0-.42-.01-.64-.01h-1.05c-.01.06-.03.29-.05.69s-.04.88-.05,1.43c-.01.55-.03,1.13-.03,1.73,0,.6-.01,1.14-.01,1.61,0,.4.01.8.03,1.18s.09.74.2,1.04c.11.31.29.56.52.74.23.19.56.28.99.28.11,0,.27-.01.46-.04.19-.03.36-.06.51-.11v.52c-.24.04-.51.1-.81.16s-.58.1-.85.1c-.9,0-1.57-.22-2-.67-.43-.44-.65-1.1-.65-1.96,0-.39,0-.81.02-1.26.01-.45.03-.95.05-1.48.02-.54.04-1.13.05-1.78.01-.65.02-1.38.02-2.18h-.69c-.12,0-.24,0-.37.01-.13,0-.27.02-.41.03.01-.09.02-.17.03-.25,0-.08.01-.16.01-.25,0-.07,0-.14-.01-.21,0-.07-.02-.14-.03-.21.64.04,1.12.06,1.42.06-.01-.29-.03-.65-.03-1.08,0-.43-.03-.87-.05-1.33l1.78-.75h.11Z"/>
      <path class="cls-1" d="M9.7,16.42c.65-.49,1.24-.82,1.78-.99.54-.17,1.1-.26,1.68-.26.52,0,.99.08,1.42.23.43.15.79.37,1.1.65.3.28.54.62.71,1.01s.26.83.26,1.3c0,.82-.01,1.63-.04,2.44-.03.81-.04,1.67-.04,2.57,0,.17,0,.36.01.55s.04.37.1.52.14.28.25.38c.11.1.27.15.48.15.07,0,.15,0,.23-.01.08,0,.15-.03.23-.08v.47c-.16.07-.35.13-.59.17s-.5.06-.79.06c-.46,0-.81-.12-1.05-.35-.24-.24-.39-.54-.43-.91-.52.52-1.02.9-1.53,1.14s-1.12.37-1.85.37c-.36,0-.71-.05-1.05-.15s-.65-.26-.91-.49-.48-.51-.64-.83c-.17-.32-.25-.69-.25-1.11,0-.86.27-1.53.81-2,.54-.47,1.28-.79,2.23-.95.77-.13,1.38-.24,1.82-.33s.76-.19.97-.29c.21-.1.33-.22.38-.36.04-.14.06-.31.06-.53,0-.36-.04-.7-.13-1.03-.09-.33-.22-.62-.41-.86-.19-.24-.43-.44-.73-.59s-.67-.23-1.1-.23c-.57,0-1.11.13-1.6.39s-.86.62-1.11,1.08h-.24v-1.12ZM15.01,20.25c-.24.09-.53.16-.85.21-.32.06-.65.12-.98.18-.33.06-.66.15-.98.25-.32.1-.61.24-.86.41s-.45.39-.6.64c-.15.26-.23.59-.23.99,0,.67.19,1.18.58,1.53s.82.52,1.29.52c.54,0,1.04-.15,1.49-.45.45-.3.8-.65,1.04-1.05l.09-3.22Z"/>
      <path class="cls-1" d="M21.84,11.65c0-.3.11-.56.32-.77s.47-.32.77-.32.56.11.77.32.32.47.32.77-.11.56-.32.77-.47.32-.77.32-.56-.11-.77-.32-.32-.47-.32-.77ZM22.14,19.41c0-.64-.01-1.32-.03-2.03-.02-.71-.07-1.37-.14-1.99.4.07.72.11.97.11s.57-.04.97-.11c-.07.62-.12,1.28-.14,1.99-.02.71-.03,1.39-.03,2.03v2.24c0,.65.01,1.32.03,2.03.02.71.07,1.35.14,1.92-.33-.03-.65-.04-.97-.04s-.64.01-.97.04c.07-.57.12-1.21.14-1.92.02-.71.03-1.39.03-2.03v-2.24Z"/>
      <path class="cls-1" d="M36.25,23.56c-.12.23-.27.48-.46.74-.19.27-.44.51-.73.74s-.64.42-1.04.56-.87.21-1.4.21-1.08-.09-1.6-.28-.99-.49-1.4-.91c-.41-.42-.74-.97-.99-1.63-.25-.67-.38-1.46-.38-2.4s.14-1.71.41-2.39.63-1.24,1.06-1.69c.44-.45.93-.79,1.48-1.01.55-.22,1.11-.33,1.67-.33,1.59,0,2.7.72,3.31,2.15h.04v-2.11c0-.54,0-1.09-.01-1.64,0-.55-.01-1.08-.02-1.58,0-.5-.01-.97-.02-1.42,0-.44-.02-.84-.03-1.18.17.03.34.05.49.08.16.02.32.03.47.03s.31-.01.46-.03.32-.05.5-.08c-.04.46-.08,1.12-.11,1.99-.03.87-.05,1.82-.08,2.87-.02,1.05-.04,2.12-.05,3.22s-.02,2.11-.02,3.03c0,.99,0,1.88.02,2.67.01.79.03,1.6.04,2.43-.29-.03-.57-.04-.84-.04-.26,0-.53.01-.82.04l.06-2.04h-.04ZM30.14,20.72c0,.86.09,1.57.27,2.13.18.56.41,1.01.69,1.34s.6.57.96.7c.36.13.71.19,1.05.19.56,0,1.04-.14,1.44-.42.4-.28.73-.64,1-1.1.27-.45.46-.96.58-1.54.12-.57.18-1.15.18-1.72,0-1.38-.27-2.43-.8-3.15s-1.31-1.09-2.34-1.09c-.52,0-.96.12-1.34.35-.38.24-.7.57-.95.99s-.44.92-.56,1.48c-.12.57-.18,1.17-.18,1.82Z"/>
      <path class="cls-1" d="M41.88,20.52c0-.97.15-1.8.46-2.48.31-.68.71-1.23,1.21-1.66.5-.42,1.06-.73,1.69-.92.62-.19,1.24-.29,1.86-.29s1.25.1,1.87.29c.62.19,1.17.5,1.68.92.5.42.91.97,1.21,1.66.31.68.46,1.51.46,2.48s-.15,1.8-.46,2.48c-.31.68-.71,1.23-1.21,1.66-.5.42-1.06.72-1.68.89-.62.17-1.24.26-1.87.26s-1.24-.09-1.86-.26c-.62-.17-1.19-.47-1.69-.89-.5-.42-.91-.97-1.21-1.66-.31-.68-.46-1.51-.46-2.48ZM43.78,20.52c0,.6.05,1.18.16,1.74.11.56.29,1.06.55,1.49s.6.78,1.03,1.04c.43.26.96.39,1.59.39s1.16-.13,1.59-.39c.43-.26.77-.6,1.03-1.04s.44-.94.55-1.49c.11-.56.16-1.14.16-1.74s-.05-1.18-.16-1.74c-.11-.56-.29-1.06-.55-1.49s-.6-.79-1.03-1.04c-.43-.26-.96-.39-1.59-.39s-1.16.13-1.59.39-.77.61-1.03,1.04-.44.94-.55,1.49-.16,1.14-.16,1.74Z"/>
      <path class="cls-1" d="M56.13,23.59c0-.33.12-.62.37-.86.24-.24.53-.37.86-.37s.62.12.86.37c.24.24.37.53.37.86s-.12.61-.37.83-.53.33-.86.33-.62-.11-.86-.33c-.24-.22-.37-.5-.37-.83Z"/>
      <path class="cls-1" d="M70.52,23.56c-.12.23-.27.48-.46.74-.19.27-.44.51-.73.74s-.64.42-1.04.56-.87.21-1.4.21-1.08-.09-1.6-.28-.99-.49-1.4-.91c-.41-.42-.74-.97-.99-1.63-.25-.67-.38-1.46-.38-2.4s.14-1.71.41-2.39.63-1.24,1.06-1.69c.44-.45.93-.79,1.48-1.01.55-.22,1.11-.33,1.67-.33,1.59,0,2.7.72,3.31,2.15h.04v-2.11c0-.54,0-1.09-.01-1.64,0-.55-.01-1.08-.02-1.58,0-.5-.01-.97-.02-1.42,0-.44-.02-.84-.03-1.18.17.03.34.05.49.08.16.02.32.03.47.03s.31-.01.46-.03.32-.05.5-.08c-.04.46-.08,1.12-.11,1.99-.03.87-.05,1.82-.08,2.87-.02,1.05-.04,2.12-.05,3.22s-.02,2.11-.02,3.03c0,.99,0,1.88.02,2.67.01.79.03,1.6.04,2.43-.29-.03-.57-.04-.84-.04-.26,0-.53.01-.82.04l.06-2.04h-.04ZM64.42,20.72c0,.86.09,1.57.27,2.13.18.56.41,1.01.69,1.34s.6.57.96.7c.36.13.71.19,1.05.19.56,0,1.04-.14,1.44-.42.4-.28.73-.64,1-1.1.27-.45.46-.96.58-1.54.12-.57.18-1.15.18-1.72,0-1.38-.27-2.43-.8-3.15s-1.31-1.09-2.34-1.09c-.52,0-.96.12-1.34.35-.38.24-.7.57-.95.99s-.44.92-.56,1.48c-.12.57-.18,1.17-.18,1.82Z"/>
      <path class="cls-1" d="M76.16,20.83c0-1.76.42-3.15,1.26-4.15.84-1,2.06-1.5,3.67-1.5.76,0,1.42.12,1.97.36.55.24,1.01.55,1.39.95.37.39.65.86.83,1.39.18.53.27,1.1.27,1.7,0,.14,0,.28-.01.42,0,.14-.02.28-.03.42-.77-.01-1.54-.03-2.3-.04-.76-.01-1.53-.02-2.3-.02-.47,0-.94,0-1.41.02-.47.01-.94.03-1.41.04-.01.07-.02.18-.02.32v.28c0,.56.08,1.08.25,1.57.16.49.4.91.72,1.26s.7.63,1.16.84c.46.21.99.31,1.59.31.29,0,.58-.04.88-.12.3-.08.59-.19.88-.32.29-.14.55-.3.81-.48s.47-.39.66-.6l.11.06-.13,1.05c-.43.34-.96.64-1.6.88-.64.24-1.3.37-1.99.37-.77,0-1.48-.12-2.12-.35-.64-.24-1.19-.58-1.66-1.03s-.82-.99-1.07-1.6c-.25-.62-.38-1.28-.38-2ZM81.12,15.86c-.53,0-.98.12-1.34.37-.37.24-.67.55-.9.91-.24.37-.42.77-.54,1.2-.12.44-.2.85-.23,1.24.44.01.91.03,1.39.04.48.01.95.02,1.41.02s.95,0,1.44-.02c.49-.01.96-.03,1.42-.04,0-.39-.03-.8-.1-1.23-.06-.43-.19-.83-.39-1.2-.19-.37-.46-.68-.81-.92-.34-.24-.8-.37-1.35-.37Z"/>
      <path class="cls-1" d="M89.96,24.07c.15.17.33.33.54.48.21.15.44.28.71.38.26.1.55.15.85.15.27,0,.53-.04.78-.13.25-.09.47-.21.67-.37.19-.16.35-.36.46-.6.11-.24.17-.52.17-.84,0-.44-.12-.78-.38-1.02-.25-.24-.56-.43-.94-.58s-.78-.28-1.23-.4c-.44-.12-.85-.28-1.23-.48-.37-.21-.68-.48-.93-.83-.25-.34-.38-.82-.38-1.42,0-.47.08-.91.24-1.3.16-.39.39-.73.69-1.02.3-.29.67-.51,1.12-.68.44-.16.95-.25,1.53-.25.53,0,.98.07,1.34.21.37.14.71.27,1.04.39-.12.21-.22.48-.32.79-.1.32-.17.56-.19.73h-.26c-.11-.34-.34-.65-.67-.92-.33-.27-.74-.41-1.23-.41-.21,0-.43.04-.65.11-.21.07-.41.18-.58.32-.17.14-.32.33-.43.56-.12.23-.17.5-.17.82,0,.46.12.81.38,1.06.25.25.56.45.94.59.37.14.78.27,1.22.38s.85.26,1.23.45c.37.19.68.46.94.81.25.34.38.82.38,1.42,0,.42-.09.82-.27,1.23-.18.4-.44.76-.77,1.08-.34.32-.74.57-1.21.75-.47.18-1.01.27-1.61.27-.66,0-1.21-.06-1.66-.19s-.82-.28-1.12-.45c.09-.19.18-.44.27-.76.09-.32.14-.59.14-.81h.26c.07.14.18.3.33.47Z"/>
      <path class="cls-1" d="M99.65,11.65c0-.3.11-.56.32-.77.22-.21.47-.32.77-.32s.56.11.77.32c.21.21.32.47.32.77s-.11.56-.32.77c-.22.21-.47.32-.77.32s-.56-.11-.77-.32c-.21-.21-.32-.47-.32-.77ZM99.95,19.41c0-.64-.01-1.32-.03-2.03-.02-.71-.07-1.37-.14-1.99.4.07.72.11.97.11s.57-.04.97-.11c-.07.62-.12,1.28-.14,1.99-.02.71-.03,1.39-.03,2.03v2.24c0,.65.01,1.32.03,2.03.02.71.07,1.35.14,1.92-.33-.03-.65-.04-.97-.04s-.64.01-.97.04c.07-.57.12-1.21.14-1.92.02-.71.03-1.39.03-2.03v-2.24Z"/>
      <path class="cls-1" d="M106.15,18.68c0-.6.11-1.12.32-1.56s.51-.8.89-1.09.82-.5,1.31-.65c.5-.14,1.02-.21,1.58-.21.27,0,.53,0,.78.02.25.01.57.04.96.06.33.03.62.05.88.06.26.01.46.02.62.02.8,0,1.38-.04,1.74-.11-.01.07-.02.15-.03.23,0,.08-.01.15-.01.23s0,.15.01.23c0,.08.02.15.03.23-.42-.03-.82-.06-1.21-.1-.39-.04-.78-.06-1.17-.08l-.04.04c.44.24.8.62,1.07,1.13s.41,1.04.41,1.58c0,1.08-.36,1.92-1.09,2.53-.72.61-1.7.91-2.91.91-.2,0-.4,0-.59-.02-.19-.01-.39-.02-.59-.02-.26,0-.5.09-.72.28-.22.19-.33.42-.33.71,0,.37.09.65.27.82s.51.27,1,.28c.4.01.8.03,1.18.03.39,0,.78.02,1.18.03.66.01,1.22.09,1.69.24.47.14.85.34,1.14.58.29.24.51.52.64.84.14.32.2.66.2,1.03,0,.5-.1,1.01-.29,1.53-.19.52-.49.98-.9,1.4-.41.42-.94.76-1.58,1.03-.64.27-1.42.41-2.32.41-1.39,0-2.49-.28-3.29-.83-.8-.55-1.2-1.31-1.2-2.27,0-.37.07-.72.2-1.03.14-.32.31-.59.53-.84.21-.24.46-.44.73-.58s.55-.25.84-.32v-.04c-.44-.13-.78-.34-1.01-.65-.23-.3-.34-.66-.34-1.07,0-.24.05-.47.14-.67.09-.2.21-.38.35-.54.14-.16.31-.29.5-.39.19-.1.37-.16.54-.19v-.04c-.66-.29-1.18-.69-1.55-1.21-.37-.52-.56-1.18-.56-1.97ZM113.78,27.88c0-.86-.25-1.46-.75-1.81-.5-.34-1.33-.52-2.49-.52-1.08,0-1.91.18-2.49.53-.59.35-.88.99-.88,1.9,0,.49.08.9.25,1.25.17.34.39.62.67.84.28.22.61.37,1,.47.39.1.8.15,1.25.15s.85-.06,1.27-.17c.42-.12.78-.29,1.11-.52.32-.23.58-.52.79-.87.2-.35.3-.77.3-1.26ZM112.62,18.57c0-.9-.21-1.59-.64-2.06-.43-.47-1-.71-1.7-.71-.77,0-1.38.26-1.81.78-.43.52-.64,1.22-.64,2.1s.2,1.62.59,2.14c.39.52,1.01.79,1.84.79.42,0,.77-.08,1.06-.25s.54-.39.73-.67c.19-.28.34-.6.43-.97.09-.37.14-.75.14-1.15Z"/>
      <path class="cls-1" d="M125.48,17.12c-.42-.55-.99-.83-1.72-.83-1,0-1.74.31-2.2.92s-.7,1.48-.7,2.6v1.83c0,.65.01,1.32.03,2.03.02.71.07,1.35.14,1.92-.33-.03-.65-.04-.97-.04s-.64.01-.97.04c.07-.57.12-1.21.14-1.92.02-.71.03-1.39.03-2.03v-2.24c0-.64-.01-1.32-.03-2.03-.02-.71-.07-1.37-.14-1.99.4.07.72.11.97.11.11,0,.24-.01.38-.03.14-.02.3-.05.48-.08-.04.57-.06,1.15-.06,1.72h.04c.4-.62.88-1.09,1.44-1.43.56-.34,1.23-.51,2-.51.4,0,.81.06,1.21.17.41.12.78.31,1.11.59.33.28.6.66.81,1.14s.31,1.09.31,1.84c0,.62-.01,1.25-.04,1.9-.03.65-.04,1.34-.04,2.08v1.4c0,.23,0,.46.01.68,0,.22.02.43.03.63-.29-.03-.59-.04-.9-.04s-.59.01-.88.04c.03-.75.06-1.51.1-2.3.04-.79.05-1.6.05-2.43v-1.31c0-1.08-.21-1.89-.62-2.44Z"/>
    </g>
    <g>
      <path class="cls-1" d="M3.44.92c-.09-.07-.19-.13-.3-.19-.11-.05-.23-.1-.37-.13-.13-.03-.28-.05-.43-.05-.25,0-.48.04-.69.11s-.4.19-.56.35c-.16.16-.28.36-.37.6-.09.24-.13.53-.13.86,0,.29.04.56.12.79.08.24.2.44.35.6.15.16.34.29.56.38.22.09.47.13.75.13.08,0,.17,0,.26-.01.09,0,.18-.02.27-.04.09-.02.17-.04.24-.06.07-.02.14-.05.19-.08,0-.12,0-.24,0-.36,0-.12,0-.24,0-.37,0-.14,0-.28,0-.42,0-.14-.01-.27-.02-.4.1.02.2.03.29.03.04,0,.09,0,.13,0s.09-.01.13-.02c0,.09-.01.24-.02.43,0,.2,0,.46,0,.78,0,.08,0,.16,0,.24s0,.16,0,.24c-.08.03-.19.07-.32.1-.13.03-.26.06-.4.08-.14.02-.28.04-.43.06-.14.02-.27.03-.39.03-.36,0-.68-.04-.96-.13s-.53-.22-.73-.4c-.2-.18-.35-.4-.46-.67-.11-.27-.16-.58-.16-.93s.06-.64.17-.91c.11-.27.27-.49.47-.67.2-.18.45-.32.74-.42s.61-.14.96-.14c.2,0,.38.01.54.03.16.02.3.05.42.09.12.04.23.07.32.11.09.04.17.08.25.11-.03.06-.06.13-.09.22-.03.09-.04.17-.05.25h-.07c-.06-.07-.13-.14-.22-.22Z"/>
      <path class="cls-1" d="M6.32,2.1c-.06-.02-.12-.03-.18-.03-.1,0-.18.02-.26.07-.08.04-.14.1-.19.18-.05.07-.09.16-.12.26-.03.1-.04.21-.04.33v.66c0,.27,0,.47,0,.62,0,.14,0,.26.02.35-.08,0-.16-.01-.24-.01-.09,0-.17,0-.25.01.01-.14.02-.32.02-.56,0-.23,0-.52,0-.86v-.19c0-.16,0-.34,0-.54s0-.44-.02-.7c.04,0,.09.01.13.02.04,0,.08,0,.13,0,.04,0,.07,0,.11,0,.04,0,.08-.01.13-.02-.02.14-.03.26-.03.34s0,.16,0,.24h.01c.24-.43.5-.64.79-.64.04,0,.07,0,.09,0,.03,0,.06.01.1.03-.02.05-.03.12-.04.22,0,.1,0,.19,0,.27l-.04.03s-.06-.05-.12-.07Z"/>
      <path class="cls-1" d="M7.35,1.96c.18-.14.35-.23.5-.28.15-.05.31-.07.47-.07.14,0,.28.02.4.06s.22.1.31.18c.08.08.15.17.2.28.05.11.07.23.07.36,0,.23,0,.46-.01.68,0,.23-.01.47-.01.72,0,.05,0,.1,0,.15,0,.05.01.1.03.14.02.04.04.08.07.1.03.03.08.04.14.04.02,0,.04,0,.06,0,.02,0,.04,0,.06-.02v.13s-.1.04-.17.05c-.07.01-.14.02-.22.02-.13,0-.23-.03-.29-.1-.07-.07-.11-.15-.12-.25-.14.14-.29.25-.43.32-.14.07-.31.1-.52.1-.1,0-.2-.01-.29-.04s-.18-.07-.25-.14c-.07-.06-.13-.14-.18-.23s-.07-.19-.07-.31c0-.24.08-.43.22-.56.15-.13.36-.22.62-.26.22-.04.38-.07.51-.09.12-.03.21-.05.27-.08.06-.03.09-.06.1-.1.01-.04.02-.09.02-.15,0-.1-.01-.2-.04-.29-.02-.09-.06-.17-.11-.24-.05-.07-.12-.12-.2-.17s-.19-.06-.31-.06c-.16,0-.31.04-.45.11-.14.07-.24.17-.31.3h-.07v-.31ZM8.83,3.03c-.07.02-.15.04-.24.06-.09.02-.18.03-.27.05-.09.02-.18.04-.27.07s-.17.07-.24.11-.13.11-.17.18-.06.16-.06.28c0,.19.05.33.16.43.11.1.23.14.36.14.15,0,.29-.04.42-.13s.22-.18.29-.29l.02-.9Z"/>
      <path class="cls-1" d="M10.52,3.42c0-.14,0-.28,0-.44,0-.16,0-.32,0-.48s0-.31-.02-.45c0-.14-.01-.27-.02-.37.11.02.2.03.27.03s.16,0,.27-.03c-.02.1-.03.2-.04.3,0,.1-.01.19-.01.29h.01c.03-.06.07-.13.12-.21.05-.07.12-.14.2-.21.08-.07.18-.12.3-.17s.25-.07.4-.07.3.03.45.09c.15.06.28.15.39.27.11.12.21.27.28.46.07.19.11.41.11.66s-.04.48-.11.67c-.08.19-.17.34-.3.47s-.26.22-.42.27-.31.09-.47.09c-.44,0-.75-.19-.94-.57h-.01v.38c0,.13,0,.27,0,.43,0,.16,0,.31,0,.47s0,.3.01.45c0,.14.01.26.02.36-.11-.02-.2-.03-.27-.03s-.16,0-.27.03c0-.1.01-.22.02-.36,0-.14.01-.29.02-.45s0-.31,0-.47c0-.16,0-.3,0-.43v-.97ZM12.69,3.08c0-.24-.03-.44-.08-.59-.05-.16-.11-.28-.19-.38s-.17-.16-.27-.2c-.1-.04-.2-.05-.29-.05-.16,0-.3.03-.41.1-.11.07-.21.16-.28.27-.07.11-.12.25-.16.4-.03.15-.05.32-.05.49,0,.83.29,1.25.88,1.25.14,0,.27-.03.38-.1.11-.07.19-.16.26-.28s.12-.26.16-.41.05-.33.05-.51Z"/>
      <path class="cls-1" d="M14.27,1.28c0-.16,0-.32,0-.47,0-.16,0-.3-.01-.45,0-.14-.01-.26-.02-.36.11.02.2.03.27.03s.16,0,.27-.03c0,.1-.01.22-.02.36,0,.14-.01.29-.02.44,0,.15,0,.31,0,.46,0,.16,0,.3,0,.43v.46h.01c.11-.17.25-.31.4-.4s.34-.14.56-.14c.11,0,.23.02.34.05.11.03.22.09.31.17s.17.18.22.32c.06.13.09.31.09.51,0,.17,0,.35-.01.53,0,.18-.01.38-.01.58v.39c0,.06,0,.13,0,.19,0,.06,0,.12,0,.18-.08,0-.16-.01-.25-.01s-.17,0-.25.01c0-.21.02-.42.03-.64s.01-.45.01-.68v-.37c0-.3-.06-.53-.17-.68-.12-.15-.28-.23-.48-.23-.28,0-.48.09-.61.26-.13.17-.2.41-.2.73,0,.11,0,.24,0,.39,0,.15,0,.3,0,.45,0,.15,0,.29.02.43,0,.14.01.25.02.34-.09,0-.18-.01-.27-.01s-.18,0-.27.01c0-.09.02-.21.02-.35,0-.14.01-.29.01-.44,0-.16,0-.31,0-.47s0-.31,0-.44v-1.09c0-.14,0-.28,0-.44Z"/>
      <path class="cls-1" d="M17.93.63c0-.08.03-.16.09-.22s.13-.09.22-.09.16.03.22.09c.06.06.09.13.09.22s-.03.16-.09.22c-.06.06-.13.09-.22.09s-.16-.03-.22-.09-.09-.13-.09-.22ZM18.02,2.8c0-.18,0-.37,0-.57,0-.2-.02-.38-.04-.55.11.02.2.03.27.03s.16,0,.27-.03c-.02.17-.03.36-.04.55,0,.2,0,.39,0,.57v.62c0,.18,0,.37,0,.57,0,.2.02.38.04.54-.09,0-.18-.01-.27-.01s-.18,0-.27.01c.02-.16.03-.34.04-.54,0-.2,0-.39,0-.57v-.62Z"/>
      <path class="cls-1" d="M19.63,3.11c0-.26.04-.48.13-.67.09-.19.2-.34.35-.46.14-.12.3-.21.49-.27.18-.06.37-.09.56-.09.22,0,.42.03.59.08.17.05.3.11.38.18-.03.06-.05.12-.08.19-.02.07-.04.13-.06.21h-.05c-.03-.05-.07-.11-.11-.16-.05-.05-.1-.1-.17-.15s-.14-.08-.22-.11c-.08-.03-.17-.04-.26-.04-.18,0-.33.03-.46.1-.13.07-.24.16-.32.27s-.14.25-.18.41-.06.33-.06.51c0,.41.09.72.26.93s.43.31.77.31c.08,0,.16-.01.25-.03.08-.02.17-.05.25-.09.08-.04.15-.08.22-.13s.13-.11.18-.17l.03.02c-.02.1-.03.19-.04.29-.12.1-.27.18-.45.25-.18.07-.36.1-.56.1-.17,0-.34-.03-.52-.08s-.33-.13-.47-.25c-.14-.12-.25-.27-.34-.46-.09-.19-.13-.42-.13-.69Z"/>
      <path class="cls-1" d="M25.23,1.96c0-.26,0-.52-.01-.78-.01-.25-.02-.51-.03-.78.15,0,.3.01.45.02.15,0,.3,0,.45,0s.3,0,.45-.01c.15,0,.3-.01.45-.01.35,0,.65.05.9.14s.46.22.62.39c.16.17.28.38.35.62s.11.52.11.83c0,.4-.07.74-.21,1.01-.14.27-.31.49-.53.66s-.45.29-.71.36-.5.11-.74.11c-.14,0-.27,0-.4,0-.13,0-.27,0-.4,0h-.4c-.13,0-.27,0-.4.01.01-.25.02-.5.03-.76,0-.26.01-.52.01-.78v-1.03ZM25.72,2.99c0,.43.01.86.04,1.27.08.02.2.04.34.04.14.01.29.02.44.02.22,0,.44-.03.66-.08s.42-.15.59-.29c.17-.14.32-.34.43-.59.11-.25.17-.57.17-.97,0-.35-.04-.63-.13-.86-.09-.22-.2-.4-.35-.53s-.33-.22-.54-.27c-.21-.05-.44-.07-.68-.07-.18,0-.35,0-.5.02-.16.01-.3.03-.42.04-.01.19-.02.39-.03.6s0,.42,0,.64v1.03Z"/>
      <path class="cls-1" d="M29.82,3.19c0-.49.12-.88.35-1.16.23-.28.57-.42,1.02-.42.21,0,.4.03.55.1.15.07.28.15.39.26.1.11.18.24.23.39.05.15.07.31.07.47,0,.04,0,.08,0,.12,0,.04,0,.08,0,.12-.22,0-.43,0-.64-.01-.21,0-.43,0-.64,0-.13,0-.26,0-.39,0-.13,0-.26,0-.39.01,0,.02,0,.05,0,.09v.08c0,.16.02.3.07.44.05.14.11.25.2.35.09.1.2.18.32.23.13.06.28.09.44.09.08,0,.16-.01.25-.03.08-.02.17-.05.25-.09.08-.04.16-.08.23-.13.07-.05.13-.11.18-.17l.03.02-.04.29c-.12.1-.27.18-.45.25-.18.07-.36.1-.56.1-.22,0-.41-.03-.59-.1-.18-.07-.33-.16-.46-.29s-.23-.28-.3-.45c-.07-.17-.11-.36-.11-.56ZM31.21,1.81c-.15,0-.27.03-.38.1-.1.07-.19.15-.25.25-.07.1-.12.21-.15.34s-.05.24-.06.34c.12,0,.25,0,.39.01.13,0,.26,0,.39,0s.27,0,.4,0c.14,0,.27,0,.4-.01,0-.11,0-.22-.03-.34s-.05-.23-.11-.34c-.05-.1-.13-.19-.22-.26-.1-.07-.22-.1-.38-.1Z"/>
      <path class="cls-1" d="M33.43,4.1s.09.09.15.14c.06.04.12.08.2.1s.15.04.24.04c.08,0,.15-.01.22-.04.07-.02.13-.06.19-.1.05-.04.1-.1.13-.17.03-.07.05-.15.05-.23,0-.12-.03-.22-.1-.29-.07-.07-.16-.12-.26-.16-.1-.04-.22-.08-.34-.11s-.24-.08-.34-.14c-.1-.06-.19-.13-.26-.23s-.11-.23-.11-.4c0-.13.02-.25.07-.36.04-.11.11-.21.19-.29s.19-.14.31-.19.27-.07.43-.07c.15,0,.27.02.38.06.1.04.2.08.29.11-.03.06-.06.13-.09.22-.03.09-.05.16-.05.2h-.07c-.03-.1-.09-.18-.19-.26-.09-.08-.21-.11-.34-.11-.06,0-.12,0-.18.03-.06.02-.11.05-.16.09s-.09.09-.12.16c-.03.06-.05.14-.05.23,0,.13.04.23.11.3.07.07.16.12.26.17s.22.08.34.11c.12.03.24.07.34.13.1.05.19.13.26.22.07.1.1.23.1.4,0,.12-.02.23-.08.34-.05.11-.12.21-.22.3s-.21.16-.34.21-.28.08-.45.08c-.18,0-.34-.02-.46-.05s-.23-.08-.31-.13c.02-.05.05-.12.08-.21.03-.09.04-.17.04-.23h.07s.05.08.09.13Z"/>
      <path class="cls-1" d="M36.07.63c0-.08.03-.16.09-.22.06-.06.13-.09.22-.09s.16.03.22.09c.06.06.09.13.09.22s-.03.16-.09.22c-.06.06-.13.09-.22.09s-.16-.03-.22-.09c-.06-.06-.09-.13-.09-.22ZM36.16,2.8c0-.18,0-.37,0-.57,0-.2-.02-.38-.04-.55.11.02.2.03.27.03s.16,0,.27-.03c-.02.17-.03.36-.04.55,0,.2,0,.39,0,.57v.62c0,.18,0,.37,0,.57,0,.2.02.38.04.54-.09,0-.18-.01-.27-.01s-.18,0-.27.01c.02-.16.03-.34.04-.54,0-.2,0-.39,0-.57v-.62Z"/>
      <path class="cls-1" d="M37.81,2.59c0-.17.03-.31.09-.43.06-.12.14-.22.25-.3.11-.08.23-.14.37-.18s.29-.06.44-.06c.08,0,.15,0,.22,0s.16,0,.27.02c.09,0,.17.01.25.02.07,0,.13,0,.17,0,.22,0,.39,0,.49-.03,0,.02,0,.04,0,.06,0,.02,0,.04,0,.06,0,.02,0,.04,0,.06,0,.02,0,.04,0,.06-.12,0-.23-.02-.34-.03-.11-.01-.22-.02-.33-.02h-.01c.12.08.22.19.3.33s.11.29.11.44c0,.3-.1.54-.3.71-.2.17-.47.25-.81.25-.06,0-.11,0-.17,0s-.11,0-.17,0c-.07,0-.14.03-.2.08-.06.05-.09.12-.09.2,0,.1.03.18.08.23s.14.07.28.08c.11,0,.22,0,.33,0,.11,0,.22,0,.33,0,.18,0,.34.03.47.07s.24.09.32.16.14.15.18.23c.04.09.06.18.06.29,0,.14-.03.28-.08.43-.05.14-.14.27-.25.39s-.26.21-.44.29c-.18.08-.4.11-.65.11-.39,0-.69-.08-.92-.23-.22-.15-.34-.37-.34-.63,0-.1.02-.2.06-.29s.09-.17.15-.23c.06-.07.13-.12.2-.16.08-.04.15-.07.23-.09h0c-.12-.05-.22-.11-.28-.19-.06-.08-.1-.18-.1-.3,0-.07.01-.13.04-.19.03-.06.06-.11.1-.15s.09-.08.14-.11c.05-.03.1-.05.15-.05h0c-.18-.09-.33-.21-.43-.35-.1-.15-.16-.33-.16-.55ZM39.94,5.16c0-.24-.07-.41-.21-.5-.14-.1-.37-.14-.7-.14-.3,0-.53.05-.7.15-.16.1-.25.27-.25.53,0,.14.02.25.07.35.05.1.11.17.19.23.08.06.17.1.28.13.11.03.22.04.35.04s.24-.02.35-.05c.12-.03.22-.08.31-.14s.16-.14.22-.24c.06-.1.08-.21.08-.35ZM39.62,2.56c0-.25-.06-.44-.18-.58-.12-.13-.28-.2-.47-.2-.22,0-.38.07-.5.22-.12.15-.18.34-.18.58s.06.45.17.6c.11.15.28.22.51.22.12,0,.21-.02.3-.07s.15-.11.2-.19c.05-.08.09-.17.12-.27.03-.1.04-.21.04-.32Z"/>
      <path class="cls-1" d="M43.05,2.16c-.12-.15-.28-.23-.48-.23-.28,0-.49.09-.62.26-.13.17-.19.41-.19.73v.51c0,.18,0,.37,0,.57,0,.2.02.38.04.54-.09,0-.18-.01-.27-.01s-.18,0-.27.01c.02-.16.03-.34.04-.54,0-.2,0-.39,0-.57v-.62c0-.18,0-.37,0-.57,0-.2-.02-.38-.04-.55.11.02.2.03.27.03.03,0,.07,0,.11,0,.04,0,.08-.01.13-.02-.01.16-.02.32-.02.48h.01c.11-.17.25-.31.4-.4.16-.09.34-.14.56-.14.11,0,.22.02.34.05s.22.09.31.17c.09.08.17.18.22.32.06.13.09.31.09.51,0,.17,0,.35-.01.53,0,.18-.01.38-.01.58v.39c0,.06,0,.13,0,.19,0,.06,0,.12,0,.18-.08,0-.16-.01-.25-.01s-.17,0-.25.01c0-.21.02-.42.03-.64,0-.22.01-.45.01-.68v-.37c0-.3-.06-.53-.17-.68Z"/>
      <path class="cls-1" d="M47.53,1.38c0-.13.02-.25.07-.35.05-.11.11-.2.19-.29s.18-.15.29-.19.24-.07.37-.07c.23,0,.42.06.57.17.15.11.22.28.22.5,0,.11-.03.22-.08.32-.05.1-.12.2-.2.29-.08.09-.17.17-.27.25-.1.07-.19.14-.28.19.18.23.36.46.53.68s.35.43.53.63c.14-.2.27-.4.39-.58.12-.19.23-.39.32-.6.02.05.06.1.1.13s.08.07.13.1c-.12.19-.25.38-.37.56s-.27.37-.44.56l.77.85c-.06,0-.13-.01-.19-.01h-.36c-.06,0-.12,0-.17.01-.03-.04-.08-.11-.15-.2-.07-.09-.14-.19-.23-.29-.18.18-.37.31-.57.42-.2.1-.44.15-.73.15-.16,0-.3-.02-.44-.06s-.26-.1-.36-.18c-.1-.08-.19-.19-.25-.32-.06-.13-.09-.27-.09-.44,0-.13.03-.26.08-.39.06-.13.13-.25.23-.36.1-.11.21-.22.34-.31s.28-.17.43-.23c-.12-.17-.21-.33-.29-.48-.08-.15-.11-.3-.11-.46ZM47.33,3.5c0,.11.02.21.07.31.04.1.1.19.18.27s.17.14.28.19c.11.05.23.07.35.07.2,0,.38-.04.52-.11.14-.07.29-.18.43-.32-.2-.24-.4-.48-.58-.71-.18-.24-.37-.48-.55-.73-.22.13-.39.28-.52.43-.12.16-.19.36-.19.61ZM48.94,1.15c0-.14-.04-.26-.13-.36-.09-.09-.2-.14-.35-.14-.16,0-.28.05-.37.16-.09.11-.14.24-.14.4,0,.12.04.26.1.42.07.16.16.31.27.44.2-.13.36-.28.46-.45s.15-.33.15-.48Z"/>
      <path class="cls-1" d="M53.59,1.17c-.01-.26-.02-.51-.03-.77.18,0,.36.01.54.02s.36,0,.54,0,.36,0,.53,0c.18,0,.35-.01.53-.02-.01.06-.02.12-.02.18s0,.12.02.18c-.13,0-.25-.02-.35-.02-.11,0-.22-.02-.34-.02s-.25-.01-.39-.02c-.14,0-.31,0-.5,0,0,.13,0,.25-.01.37s0,.25,0,.4,0,.31,0,.46c0,.15,0,.26,0,.34.18,0,.33,0,.47,0,.14,0,.27,0,.38-.02.12,0,.22-.01.32-.02.1,0,.19-.01.28-.02-.01.06-.02.12-.02.19,0,.06,0,.12.02.18-.1-.01-.22-.02-.36-.03-.14,0-.28-.01-.41-.01-.14,0-.27,0-.39,0s-.22,0-.29,0c0,.04,0,.08,0,.12s0,.09,0,.16v.59c0,.23,0,.42,0,.56,0,.15,0,.26,0,.34h.42c.15,0,.3,0,.45,0,.15,0,.28-.01.41-.02.13,0,.24-.02.34-.04,0,.03-.01.06-.01.09,0,.03,0,.06,0,.09,0,.06,0,.12.02.16-.18,0-.36-.01-.54-.01h-1.09c-.18,0-.36,0-.55.01.01-.26.02-.51.03-.77,0-.25.01-.51.01-.78v-1.03c0-.26,0-.52-.01-.78Z"/>
      <path class="cls-1" d="M58.8,3.95c-.03.06-.08.13-.13.21-.05.07-.12.14-.2.21-.08.06-.18.12-.29.16-.11.04-.24.06-.39.06s-.3-.03-.45-.08c-.15-.05-.28-.14-.39-.25s-.21-.27-.28-.46c-.07-.19-.11-.41-.11-.67s.04-.48.11-.67c.08-.19.17-.34.3-.47s.26-.22.41-.28c.15-.06.31-.09.46-.09.44,0,.75.2.92.6h.01v-.59c0-.15,0-.3,0-.46s0-.3,0-.44c0-.14,0-.27,0-.4s0-.23,0-.33c.05,0,.09.01.14.02.04,0,.09,0,.13,0s.09,0,.13,0c.04,0,.09-.01.14-.02-.01.13-.02.31-.03.55,0,.24-.01.51-.02.8,0,.29-.01.59-.02.9,0,.31,0,.59,0,.85,0,.28,0,.52,0,.74,0,.22,0,.45.01.68-.08,0-.16-.01-.23-.01-.07,0-.15,0-.23.01l.02-.57h-.01ZM57.1,3.16c0,.24.02.44.08.59.05.16.11.28.19.38s.17.16.27.2c.1.04.2.05.29.05.16,0,.29-.04.4-.12.11-.08.21-.18.28-.31s.13-.27.16-.43.05-.32.05-.48c0-.38-.07-.68-.22-.88-.15-.2-.37-.3-.65-.3-.14,0-.27.03-.38.1-.11.07-.19.16-.26.28-.07.12-.12.26-.16.41-.03.16-.05.33-.05.51Z"/>
      <path class="cls-1" d="M60.48.63c0-.08.03-.16.09-.22.06-.06.13-.09.22-.09s.16.03.22.09c.06.06.09.13.09.22s-.03.16-.09.22c-.06.06-.13.09-.22.09s-.16-.03-.22-.09c-.06-.06-.09-.13-.09-.22ZM60.56,2.8c0-.18,0-.37,0-.57,0-.2-.02-.38-.04-.55.11.02.2.03.27.03s.16,0,.27-.03c-.02.17-.03.36-.04.55,0,.2,0,.39,0,.57v.62c0,.18,0,.37,0,.57,0,.2.02.38.04.54-.09,0-.18-.01-.27-.01s-.18,0-.27.01c.02-.16.03-.34.04-.54,0-.2,0-.39,0-.57v-.62Z"/>
      <path class="cls-1" d="M62.92.87c-.01.15-.02.3-.03.45,0,.15-.01.29-.02.44.04,0,.13,0,.25,0s.25,0,.39-.01c0,.01,0,.03,0,.07v.13s0,.05,0,.06c-.05,0-.11,0-.16,0-.06,0-.12,0-.18,0h-.29s0,.08-.01.19c0,.11-.01.25-.02.4,0,.15,0,.31,0,.48s0,.32,0,.45c0,.11,0,.22,0,.33s.03.21.06.29c.03.09.08.16.14.21.06.05.16.08.28.08.03,0,.07,0,.13-.01.05,0,.1-.02.14-.03v.14c-.07.01-.14.03-.22.04-.08.02-.16.03-.24.03-.25,0-.44-.06-.56-.19-.12-.12-.18-.31-.18-.55,0-.11,0-.22,0-.35,0-.13,0-.26.02-.41s.01-.32.01-.5c0-.18,0-.38,0-.61h-.19s-.07,0-.1,0-.07,0-.11,0c0-.02,0-.05,0-.07,0-.02,0-.04,0-.07,0-.02,0-.04,0-.06,0-.02,0-.04,0-.06.18.01.31.02.4.02,0-.08,0-.18,0-.3s0-.24-.02-.37l.5-.21h.03Z"/>
    </g>
  </g>
</svg>